<svg width="76" height="50" viewBox="0 0 76 50" fill="none" xmlns="http://www.w3.org/2000/svg">
<path d="M11.3423 25.7555H12.7724V21.9064C12.7724 18.7404 12.5916 16.6243 12.23 15.5578C11.9012 14.4581 11.2437 13.9082 10.2574 13.9082C9.66562 13.9082 9.12316 14.0748 8.63002 14.4081C8.16975 14.708 7.93961 15.1413 7.93961 15.7078C7.93961 16.241 8.03824 16.7909 8.2355 17.3574H9.46836C9.73137 18.0573 9.86288 18.9071 9.86288 19.9068C9.86288 20.8733 9.45192 21.7231 8.63002 22.4563C7.80811 23.1561 6.77251 23.506 5.52321 23.506C2.69585 23.506 1.28217 22.123 1.28217 19.357C1.28217 15.2579 4.71774 13.2084 11.5889 13.2084C15.5012 13.2084 18.197 13.8915 19.6764 15.2579C21.1887 16.5909 21.9449 19.057 21.9449 22.6562V32.8039C21.9449 34.5368 22.4216 35.4033 23.375 35.4033C24.4928 35.4033 25.1503 33.687 25.3476 30.2545L26.0873 30.3045C25.9558 33.2371 25.4133 35.2534 24.4599 36.3531C23.5065 37.4529 21.9449 38.0027 19.7751 38.0027C15.8299 38.0027 13.5615 36.7697 12.9697 34.3036C12.5423 35.5699 11.9012 36.5031 11.0464 37.1029C10.1916 37.7028 8.94234 38.0027 7.29853 38.0027C2.43284 38.0027 0 35.9865 0 31.9541C0 29.588 0.920535 27.9717 2.7616 27.1052C4.63555 26.2054 7.49578 25.7555 11.3423 25.7555ZM9.36973 31.9041C9.36973 33.6371 9.45192 34.7535 9.6163 35.2534C9.81356 35.7532 10.1588 36.0032 10.6519 36.0032C11.1779 36.0032 11.6546 35.5866 12.082 34.7535C12.5423 33.887 12.7724 32.7039 12.7724 31.2043V26.5553H12.4272C10.3889 26.5553 9.36973 28.0717 9.36973 31.1043V31.9041ZM11.9834 0.611225L15.0902 10.1591L14.5477 10.509L7.93961 4.96024C6.9862 4.09377 6.5095 3.26062 6.5095 2.4608C6.5095 1.62766 6.77251 0.977809 7.29853 0.511249C7.85742 0.0113609 8.64645 -0.121942 9.66562 0.111339L11.9834 0.611225Z" fill="#E0874B"/>
<path d="M46.1062 11.1088L47.487 10.259C47.6843 9.22593 47.2898 8.70938 46.3035 8.70938C44.8898 8.70938 44.183 9.80913 44.183 12.0086C44.183 12.8751 44.298 13.8749 44.5282 15.008C47.0268 16.7076 48.2761 18.8904 48.2761 21.5565C48.2761 24.1892 47.372 26.2387 45.5638 27.7051C43.7556 29.1714 41.3063 29.9046 38.2159 29.9046C36.9338 29.9046 35.6023 29.7713 34.2215 29.5047C32.7749 30.4378 32.0516 31.1376 32.0516 31.6042C32.0516 32.0707 33.1037 32.304 35.2078 32.304H40.2378C47.7007 32.304 51.4322 35.0201 51.4322 40.4522C51.4322 43.3848 50.298 45.701 48.0295 47.4006C45.7939 49.1335 42.2926 50 37.5255 50C29.4051 50 25.3449 48.2171 25.3449 44.6512C25.3449 42.7183 26.6106 41.3853 29.1421 40.6521L32.101 42.0018C31.8379 42.9683 31.7064 43.8847 31.7064 44.7512C31.7064 47.6172 33.8105 49.0502 38.0187 49.0502C40.583 49.0502 42.5556 48.567 43.9364 47.6005C45.3172 46.6341 46.0076 45.4344 46.0076 44.0014C46.0076 42.5684 45.5802 41.6019 44.7254 41.102C43.9035 40.6355 42.2433 40.4022 39.7447 40.4022H34.9612C32.2982 40.4022 30.3914 39.9523 29.2407 39.0525C28.0901 38.1527 27.5147 37.0529 27.5147 35.7532C27.5147 34.4202 27.9257 33.3205 28.7476 32.454C29.5695 31.5542 31.0325 30.4544 33.1366 29.1547C29.3229 28.055 27.4161 25.5222 27.4161 21.5565C27.4161 19.057 28.3038 17.0408 30.0791 15.5078C31.8544 13.9749 34.5174 13.2084 38.068 13.2084C40.205 13.2084 42.0296 13.6249 43.5419 14.4581C43.3446 13.5583 43.246 12.7418 43.246 12.0086C43.246 10.1424 43.7392 8.7927 44.7254 7.95955C45.7117 7.12641 46.8131 6.70984 48.0295 6.70984C49.2459 6.70984 50.2158 7.0431 50.939 7.70961C51.6952 8.3428 52.0733 9.22593 52.0733 10.359C52.0733 11.4921 51.7774 12.3419 51.1856 12.9084C50.5938 13.4416 49.8706 13.7082 49.0158 13.7082C48.1939 13.7082 47.5035 13.4916 46.9446 13.0584C46.4186 12.5918 46.1391 11.942 46.1062 11.1088ZM35.6516 20.4567V23.1561C35.6516 25.3889 35.8324 26.9052 36.1941 27.7051C36.5886 28.5049 37.1639 28.9048 37.9201 28.9048C38.7091 28.9048 39.268 28.5215 39.5967 27.7551C39.9584 26.9552 40.1392 25.3389 40.1392 22.9062V20.4567C40.1392 17.8573 39.9748 16.1577 39.6461 15.3579C39.3173 14.5247 38.7584 14.1082 37.9694 14.1082C37.2132 14.1082 36.6379 14.5414 36.2434 15.4079C35.8489 16.241 35.6516 17.924 35.6516 20.4567Z" fill="#E0874B"/>
<path d="M66.5316 27.6551V23.406C66.5316 20.1734 66.3508 17.824 65.9892 16.3576C65.6604 14.858 64.8714 14.1082 63.6221 14.1082C62.8988 14.1082 62.307 14.3248 61.8468 14.758C61.4194 15.1579 61.1071 15.8411 60.9098 16.8075C60.6139 18.3072 60.466 20.59 60.466 23.656V27.5551C60.466 31.1876 60.5646 33.3704 60.7619 34.1036C60.992 34.8368 61.2221 35.4366 61.4523 35.9032C61.8139 36.703 62.5207 37.1029 63.5728 37.1029C64.855 37.1029 65.6933 36.3531 66.0878 34.8534C66.3837 33.787 66.5316 31.3876 66.5316 27.6551ZM63.4741 38.0027C59.3646 38.0027 56.2578 36.9363 54.1537 34.8035C52.0497 32.6706 50.9976 29.6213 50.9976 25.6555C50.9976 21.6564 52.1154 18.5905 54.351 16.4576C56.6194 14.2914 59.792 13.2084 63.8687 13.2084C67.9453 13.2084 70.9864 14.2081 72.9918 16.2077C74.9973 18.1739 76 21.1899 76 25.2556C76 33.7537 71.8247 38.0027 63.4741 38.0027ZM63.918 0.611225L67.0248 10.1591L66.4823 10.509L59.8742 4.96024C58.9208 4.09377 58.4441 3.26062 58.4441 2.4608C58.4441 1.62766 58.7071 0.977809 59.2331 0.511249C59.792 0.0113609 60.581 -0.121942 61.6002 0.111339L63.918 0.611225Z" fill="#E0874B"/>
</svg>
