<svg id="Layer_1" data-name="Layer 1" xmlns="http://www.w3.org/2000/svg" viewBox="0 0 471.47 93.9"><defs><style>.cls-1{fill:#d8854c;}</style></defs><title>logo</title><path class="cls-1" d="M56,49.41a24,24,0,0,0-9.21-10.1q-6.24-3.9-15.28-3.9a33.15,33.15,0,0,0-16.44,4A28.29,28.29,0,0,0,4,50.27,29.36,29.36,0,0,0,.13,65.05,28,28,0,0,0,2.44,76.4,26.43,26.43,0,0,0,9.1,85.58a31,31,0,0,0,10.6,6.07,41.75,41.75,0,0,0,13.83,2.18q16.95,0,24.75-12.48l-5.15-3.49a18.13,18.13,0,0,1-8.58,6.86A25.68,25.68,0,0,1,36.1,86.5q-6.41,0-10.2-2.93a15.79,15.79,0,0,1-5.34-7.23A31.2,31.2,0,0,1,18.71,68c-.2-2.73-.32-4.51-.37-5.35h40.6A30.18,30.18,0,0,0,56,49.41ZM18.48,56.54q.33-6.74,3.4-10.89a10.26,10.26,0,0,1,8.81-4.16q11.88,0,11.88,15Z"/><rect class="cls-1" x="70.53" y="59.45" width="33.21" height="10.08"/><path class="cls-1" d="M160.51,83.27q-3.44,3.23-10,3.23a15.52,15.52,0,0,1-9.93-3.2,18.24,18.24,0,0,1-5.94-8.68,36.89,36.89,0,0,1-1.88-12q0-12.21,4.65-16.67a15,15,0,0,1,10.66-4.45,9.77,9.77,0,0,1,5.55,1.35,7.64,7.64,0,0,1,2.83,4.59q.87,3.36,1.32,4.68a6.29,6.29,0,0,0,1.92,2.58,6.21,6.21,0,0,0,4.16,1.25,7.11,7.11,0,0,0,5-2A6.54,6.54,0,0,0,171.07,49q0-6.35-6.93-9.94a34.32,34.32,0,0,0-16-3.6,36.85,36.85,0,0,0-13.36,2.41,32.24,32.24,0,0,0-10.8,6.77,30.87,30.87,0,0,0-7,9.77,27.55,27.55,0,0,0-2.41,11.35,25.55,25.55,0,0,0,4.46,15,28.48,28.48,0,0,0,11.81,9.77,37,37,0,0,0,15.61,3.37q17.69,0,25.68-15.58l-5.55-2.57A36.09,36.09,0,0,1,160.51,83.27Z"/><path class="cls-1" d="M244.44,83.53q-1.42-2-1.42-7.59V56.21q0-7.73-2.71-12.54a12.19,12.19,0,0,0-4-4.36,20.74,20.74,0,0,0-6.17-2.91,24.7,24.7,0,0,0-6.87-1q-7.46,0-11.65,2.81a48.12,48.12,0,0,0-8.08,6.9V.56L177,6.24v5.94c4.26,0,6.93.63,8,1.75s1.59,3.33,1.59,6.63V75.94a25.3,25.3,0,0,1-.5,6,4.19,4.19,0,0,1-2.57,2.73,16.94,16.94,0,0,1-6.5.93v6.07h34.58V85.58q-3.89,0-5.57-1.22A5,5,0,0,1,203.91,81a45.19,45.19,0,0,1-.36-6.76V62.87a39.6,39.6,0,0,1,.49-6.76,17,17,0,0,1,2.34-5.84,12.62,12.62,0,0,1,4.92-4.39,13.43,13.43,0,0,1,6.31-1.69q3.82,0,5.67,2.15a9.62,9.62,0,0,1,2.28,4.78,36.79,36.79,0,0,1,.43,5.94V79.24A6.16,6.16,0,0,1,224.27,84q-1.71,1.62-6.27,1.62v6.07h33.93V85.58Q245.86,85.58,244.44,83.53Z"/><path class="cls-1" d="M310.08,39.38a35.48,35.48,0,0,0-17.29-4q-13.47,0-23.24,7.43t-9.77,21.75q0,9.57,4.72,16.17a28.89,28.89,0,0,0,12.15,9.84,39.1,39.1,0,0,0,15.74,3.23,37.44,37.44,0,0,0,16.27-3.53,28.25,28.25,0,0,0,11.78-10.2,27.89,27.89,0,0,0,4.36-15.64A29.12,29.12,0,0,0,321.07,50,27.07,27.07,0,0,0,310.08,39.38Zm-4.39,36.33a16.81,16.81,0,0,1-4,8.58c-2.1,2.31-5.14,3.47-9.15,3.47q-9.11,0-11.81-6.27T278,65.05a60.56,60.56,0,0,1,1.22-13.43c.82-3.45,2.25-6,4.29-7.66s4.9-2.47,8.55-2.47q8.58,0,11.55,5.67t3,16.9A67.75,67.75,0,0,1,305.69,75.71Z"/><path class="cls-1" d="M397.41,78.52l-17.69-23.9,6.73-4.75q8.12-5.55,15-6.2V37.59h-28v6.08h3.69c2.07,0,3.11.59,3.11,1.78a1.85,1.85,0,0,1-.5,1.32,22.23,22.23,0,0,1-2.34,1.91L358.86,61.35V.56l-26.6,5.81v6.07a31.12,31.12,0,0,1,5.94.6,4.27,4.27,0,0,1,2.74,2,9.56,9.56,0,0,1,.89,4.72V75.94a17.62,17.62,0,0,1-.79,6.14,4.7,4.7,0,0,1-2.84,2.74,17.85,17.85,0,0,1-5.94.76v6.07h34.19V85.58a16.55,16.55,0,0,1-4.55-.46,3.78,3.78,0,0,1-2.25-2.28,15.45,15.45,0,0,1-.79-5.78V68.81l6.93-4.75,12,15.84a5.45,5.45,0,0,1,1.45,3.37q0,2.31-5.8,2.31v6.07h32.73V85.58a5.92,5.92,0,0,1-4.12-1.75A47.06,47.06,0,0,1,397.41,78.52Z"/><path class="cls-1" d="M456.55,84.72a25.68,25.68,0,0,1-8.45,1.78q-6.41,0-10.2-2.93a15.88,15.88,0,0,1-5.35-7.23A31.17,31.17,0,0,1,430.71,68c-.2-2.73-.32-4.51-.37-5.35h40.6a30.18,30.18,0,0,0-3-13.2,24,24,0,0,0-9.21-10.1q-6.24-3.9-15.28-3.9a33.15,33.15,0,0,0-16.44,4A28.29,28.29,0,0,0,416,50.27a29.36,29.36,0,0,0-3.86,14.78,27.83,27.83,0,0,0,2.31,11.35,26.43,26.43,0,0,0,6.66,9.18,31,31,0,0,0,10.6,6.07,41.69,41.69,0,0,0,13.82,2.18q17,0,24.76-12.48l-5.15-3.49A18.13,18.13,0,0,1,456.55,84.72ZM433.87,45.65a10.29,10.29,0,0,1,8.82-4.16q11.88,0,11.88,15H430.48C430.69,52.05,431.83,48.42,433.87,45.65Z"/></svg>