<svg id="Layer_1" data-name="Layer 1" xmlns="http://www.w3.org/2000/svg" viewBox="0 0 144 122.45"><defs><style>.cls-1{fill:#d8854c;}</style></defs><title>e-choke-logo</title><path class="cls-1" d="M136.25,97.08a50.38,50.38,0,0,1-8.48,10.61q-4.8,4.52-13.93,4.52A21.71,21.71,0,0,1,100,107.74a25.65,25.65,0,0,1-8.31-12.13A51.5,51.5,0,0,1,89,78.82q0-17.07,6.51-23.29a20.93,20.93,0,0,1,14.89-6.23q5,0,7.75,1.89t4,6.41q1.2,4.71,1.84,6.55a8.76,8.76,0,0,0,2.68,3.6,8.62,8.62,0,0,0,5.81,1.75,9.93,9.93,0,0,0,7-2.86,9.13,9.13,0,0,0,3-6.92q0-8.85-9.68-13.88a48,48,0,0,0-22.42-5,51.44,51.44,0,0,0-18.67,3.36,45.19,45.19,0,0,0-15.09,9.46A43.14,43.14,0,0,0,67.56,66a22.11,22.11,0,0,1-5.48,2.92,36,36,0,0,1-11.81,2.49q-8.94,0-14.25-4.1a22,22,0,0,1-7.47-10.1A43.28,43.28,0,0,1,26,45.47q-.42-5.72-.51-7.47H82.18A42.21,42.21,0,0,0,78,19.55,33.56,33.56,0,0,0,65.17,5.44Q56.46,0,43.81,0a46.2,46.2,0,0,0-23,5.63A39.44,39.44,0,0,0,5.4,20.75,41.15,41.15,0,0,0,0,41.42,39,39,0,0,0,3.23,57.28,36.79,36.79,0,0,0,12.54,70.1a43.39,43.39,0,0,0,14.81,8.49,58.26,58.26,0,0,0,19.32,3,47.65,47.65,0,0,0,17.15-2.9,40.5,40.5,0,0,0-.25,4.42,35.72,35.72,0,0,0,6.22,20.94A39.86,39.86,0,0,0,86.3,117.74a51.8,51.8,0,0,0,21.82,4.71q24.72,0,35.88-21.77ZM30.39,14.3q4.29-5.82,12.32-5.81,16.6,0,16.6,21H25.64Q26.1,20.1,30.39,14.3Z"/></svg>