<svg width="84" height="84" viewBox="0 0 84 84" fill="none" xmlns="http://www.w3.org/2000/svg">
<path d="M38.1739 55.1519H40.9698V47.6567C40.9698 41.4919 40.6163 37.3712 39.9093 35.2947C39.2665 33.1532 37.9811 32.0825 36.0529 32.0825C34.896 32.0825 33.8355 32.4069 32.8715 33.0558C31.9716 33.6399 31.5217 34.4835 31.5217 35.5867C31.5217 36.625 31.7146 37.6957 32.1002 38.7989H34.5104C35.0246 40.1616 35.2817 41.8164 35.2817 43.7632C35.2817 45.6451 34.4783 47.2998 32.8715 48.7275C31.2646 50.0902 29.2401 50.7716 26.7977 50.7716C21.2703 50.7716 18.5066 48.0785 18.5066 42.6924C18.5066 34.7106 25.2231 30.7197 38.656 30.7197C46.3043 30.7197 51.5747 32.05 54.4669 34.7106C57.4234 37.3063 58.9017 42.1084 58.9017 49.1168V68.8767C58.9017 72.2511 59.8336 73.9384 61.6975 73.9384C63.8828 73.9384 65.1682 70.5964 65.5539 63.9124L67 64.0097C66.7429 69.7203 65.6824 73.6463 63.8185 75.7878C61.9546 77.9293 58.9017 79 54.6597 79C46.9471 79 42.5123 76.599 41.3554 71.7969C40.5198 74.2628 39.2665 76.0798 37.5955 77.2479C35.9244 78.416 33.482 79 30.2684 79C20.7561 79 16 75.074 16 67.2219C16 62.6145 17.7996 59.4673 21.3989 57.78C25.0624 56.0279 30.6541 55.1519 38.1739 55.1519ZM34.3176 67.1246C34.3176 70.499 34.4783 72.6729 34.7996 73.6463C35.1853 74.6197 35.8601 75.1064 36.8242 75.1064C37.8526 75.1064 38.7845 74.2953 39.62 72.673C40.5198 70.9857 40.9698 68.682 40.9698 65.7619V56.7093H40.2949C36.31 56.7093 34.3176 59.6619 34.3176 65.5672V67.1246ZM39.4272 6.19019L45.5009 24.782L44.4405 25.4634L31.5217 14.6587C29.6578 12.9715 28.7259 11.3492 28.7259 9.79175C28.7259 8.16943 29.2401 6.90402 30.2684 5.99552C31.3611 5.02212 32.9036 4.76255 34.896 5.2168L39.4272 6.19019Z" fill="#E0874B"/>
</svg>
