<svg id="Layer_1" data-name="Layer 1" xmlns="http://www.w3.org/2000/svg" viewBox="0 0 166.87 141.9"><defs><style>.cls-1{fill:#e28f50;}</style></defs><title>e-choke-logo</title><path class="cls-1" d="M129.41,96.61a36.09,36.09,0,0,1-6.07,7.59q-3.44,3.22-10,3.23a15.52,15.52,0,0,1-9.93-3.2,18.24,18.24,0,0,1-5.94-8.68,36.89,36.89,0,0,1-1.88-12q0-12.21,4.65-16.67a15,15,0,0,1,10.66-4.45,9.77,9.77,0,0,1,5.55,1.35,7.64,7.64,0,0,1,2.83,4.59q.87,3.36,1.33,4.68a6,6,0,0,0,6.07,3.83,7.11,7.11,0,0,0,5-2,6.54,6.54,0,0,0,2.18-5q0-6.34-6.93-9.94a34.32,34.32,0,0,0-16-3.6,36.85,36.85,0,0,0-13.36,2.41,32.24,32.24,0,0,0-10.8,6.77,31,31,0,0,0-6.51,8.83,15.82,15.82,0,0,1-3.93,2.09,25.68,25.68,0,0,1-8.44,1.79q-6.41,0-10.2-2.94a15.81,15.81,0,0,1-5.35-7.23,31.5,31.5,0,0,1-1.85-8.38c-.19-2.73-.32-4.51-.36-5.35H90.72a30.21,30.21,0,0,0-3-13.2A24,24,0,0,0,78.55,31q-6.24-3.88-15.28-3.89a33.12,33.12,0,0,0-16.44,4A28.38,28.38,0,0,0,35.77,42a29.46,29.46,0,0,0-3.86,14.78,28,28,0,0,0,2.31,11.36,26.33,26.33,0,0,0,6.67,9.17,30.94,30.94,0,0,0,10.59,6.07,41.54,41.54,0,0,0,13.83,2.18,34.19,34.19,0,0,0,12.27-2.07,27.5,27.5,0,0,0-.18,3.16,25.55,25.55,0,0,0,4.46,15,28.48,28.48,0,0,0,11.81,9.77,37,37,0,0,0,15.61,3.37q17.68,0,25.68-15.58ZM53.66,37.37a10.31,10.31,0,0,1,8.81-4.16q11.88,0,11.88,15H50.26Q50.59,41.53,53.66,37.37Z"/></svg>